<?xml version="1.0" encoding="utf-8"?>
<!-- Generator: Adobe Illustrator 16.0.4, SVG Export Plug-In . SVG Version: 6.00 Build 0)  -->
<!DOCTYPE svg PUBLIC "-//W3C//DTD SVG 1.1//EN" "http://www.w3.org/Graphics/SVG/1.1/DTD/svg11.dtd">
<svg version="1.1" id="Capa_1" xmlns="http://www.w3.org/2000/svg" xmlns:xlink="http://www.w3.org/1999/xlink" x="0px" y="0px"
	 width="50px" height="50px" viewBox="0 0 50 50" enable-background="new 0 0 50 50" xml:space="preserve">
<path d="M83.757,9.408c-1.021,0.451-2.11,0.756-3.261,0.896c1.172-0.704,2.076-1.818,2.499-3.144
	c-1.099,0.652-2.312,1.126-3.608,1.378c-1.037-1.108-2.517-1.8-4.146-1.8c-3.138,0-5.681,2.546-5.681,5.684
	c0,0.446,0.047,0.881,0.146,1.298c-4.721-0.236-8.91-2.499-11.707-5.942c-0.486,0.838-0.77,1.818-0.77,2.855
	c0,1.971,1.01,3.714,2.535,4.734c-0.939-0.024-1.818-0.282-2.582-0.71v0.071c0,2.756,1.959,5.051,4.559,5.572
	c-0.477,0.129-0.98,0.199-1.496,0.199c-0.363,0-0.721-0.037-1.066-0.107c0.721,2.261,2.82,3.902,5.309,3.95
	c-1.941,1.524-4.395,2.434-7.057,2.434c-0.459,0-0.91-0.03-1.354-0.082c2.504,1.631,5.489,2.568,8.692,2.568
	c10.457,0,16.172-8.663,16.172-16.177c0-0.247-0.006-0.493-0.018-0.733C82.032,11.548,82.995,10.551,83.757,9.408z"/>
<circle fill="none" stroke="#000000" stroke-miterlimit="10" cx="25" cy="25.06" r="23.262"/>
<path d="M14.1,15.322c-0.816,0.361-0.769-0.18-0.769,9.316c0,7.743,0.025,8.62,0.193,8.872c0.444,0.625,0.228,0.613,11.117,0.613
	c11.309,0,10.732,0.047,11.176-0.842c0.192-0.395,0.205-0.996,0.18-8.763c-0.036-7.863-0.047-8.379-0.252-8.691
	c-0.455-0.697-0.131-0.672-11.152-0.672C16.333,15.167,14.4,15.191,14.1,15.322z M31.579,17.243
	c-0.554,0.529-6.915,6.195-6.964,6.195c-0.047,0-6.47-5.727-7.01-6.255c-0.072-0.06,2.665-0.107,7.01-0.107
	C30.798,17.075,31.723,17.099,31.579,17.243z M34.101,24.65v6.856l-0.348,0.346l-0.351,0.35h-8.726h-8.728l-0.349-0.35l-0.349-0.346
	V24.65c0-3.77,0.049-6.854,0.097-6.854c0.048,0,2.077,1.776,4.501,3.961c3.687,3.315,4.478,3.962,4.765,3.962
	c0.301,0,0.865-0.445,3.205-2.558c5.667-5.09,6.1-5.462,6.185-5.402C34.063,17.784,34.101,20.893,34.101,24.65z"/>
</svg>
